<svg xmlns="http://www.w3.org/2000/svg" xmlns:xlink="http://www.w3.org/1999/xlink" width="0" height="0" style="display:none;"><symbol viewBox="0 0 24 24" id="votigram-icon-add3">
<path fill-rule="evenodd" clip-rule="evenodd" d="M12.75 4C12.75 3.58579 12.4142 3.25 12 3.25C11.5858 3.25 11.25 3.58579 11.25 4V11.25H4.00065C3.58644 11.25 3.25065 11.5858 3.25065 12C3.25065 12.4142 3.58644 12.75 4.00065 12.75H11.25V20C11.25 20.4142 11.5858 20.75 12 20.75C12.4142 20.75 12.75 20.4142 12.75 20V12.75H19.9998C20.414 12.75 20.7498 12.4142 20.7498 12C20.7498 11.5858 20.414 11.25 19.9998 11.25H12.75V4Z" fill="currentColor"></path>
</symbol><symbol viewBox="0 0 24 24" id="votigram-icon-browse">
<rect x="3.59998" y="3.59998" width="8" height="8" rx="2.5" fill="currentColor"></rect>
<rect x="3.59998" y="12.6" width="8" height="8" rx="2.5" fill="currentColor"></rect>
<rect x="12.6" y="3.59998" width="8" height="8" rx="2.5" fill="currentColor"></rect>
<rect x="12.6" y="12.6" width="8" height="8" rx="2.5" fill="currentColor"></rect>
</symbol><symbol viewBox="0 0 24 24" id="votigram-icon-community-leaderboard">
<path fill-rule="evenodd" clip-rule="evenodd" d="M3.60229 11.9975C3.60229 7.58041 7.13766 3.59998 12.0166 3.59998C16.7864 3.59998 20.3974 7.50484 20.3974 11.9723C20.3974 17.1536 16.165 20.3699 11.9998 20.3699C10.6226 20.3699 9.09513 20.0004 7.86909 19.2782C7.43997 19.0179 7.07888 18.8247 6.61701 18.9759L4.92071 19.4797C4.49243 19.6141 4.10615 19.2782 4.23211 18.8247L4.79475 16.9437C4.88712 16.6834 4.87032 16.4062 4.73596 16.1879C4.01377 14.8611 3.60229 13.4083 3.60229 11.9975ZM10.9087 11.9977C10.9087 12.594 11.3874 13.0726 11.9836 13.081C12.5798 13.081 13.0585 12.594 13.0585 12.0061C13.0585 11.4099 12.5798 10.9313 11.9836 10.9313C11.3957 10.9229 10.9087 11.4099 10.9087 11.9977ZM7.03711 12.0062C7.03711 12.594 7.52417 13.0811 8.112 13.0811C8.70822 13.0727 9.18688 12.594 9.18688 12.0062C9.18688 11.41 8.70822 10.9313 8.112 10.9313C7.51577 10.9313 7.03711 11.41 7.03711 12.0062ZM15.8547 13.0811C15.2585 13.0811 14.7798 12.594 14.7798 12.0062C14.7798 11.41 15.2585 10.9313 15.8547 10.9313C16.4509 10.9313 16.9296 11.41 16.9296 12.0062C16.9296 12.594 16.4509 13.0811 15.8547 13.0811Z" fill="currentColor"></path>
</symbol><symbol viewBox="0 0 24 24" id="votigram-icon-icon-Profile">
<path d="M11.9966 15.0665C8.37378 15.0665 5.2793 15.6377 5.2793 17.9225C5.2793 20.208 8.35446 20.7994 11.9966 20.7994C15.6194 20.7994 18.7139 20.229 18.7139 17.9435C18.7139 15.6579 15.6396 15.0665 11.9966 15.0665" fill="currentColor"></path>
<path d="M11.9963 12.8903C14.4642 12.8903 16.4415 10.9122 16.4415 8.44517C16.4415 5.97815 14.4642 4 11.9963 4C9.5293 4 7.55115 5.97815 7.55115 8.44517C7.55115 10.9122 9.5293 12.8903 11.9963 12.8903" fill="currentColor"></path>
</symbol><symbol viewBox="0 0 24 24" id="votigram-icon-icon-browse">
<rect x="3.59998" y="3.59998" width="8" height="8" rx="2.5" fill="currentColor"></rect>
<rect x="3.59998" y="12.6" width="8" height="8" rx="2.5" fill="currentColor"></rect>
<rect x="12.6" y="3.59998" width="8" height="8" rx="2.5" fill="currentColor"></rect>
<rect x="12.6" y="12.6" width="8" height="8" rx="2.5" fill="currentColor"></rect>
</symbol><symbol viewBox="0 0 24 24" id="votigram-icon-icon-community-leaderboard">
<path fill-rule="evenodd" clip-rule="evenodd" d="M3.60229 11.9975C3.60229 7.58041 7.13766 3.59998 12.0166 3.59998C16.7864 3.59998 20.3974 7.50484 20.3974 11.9723C20.3974 17.1536 16.165 20.3699 11.9998 20.3699C10.6226 20.3699 9.09513 20.0004 7.86909 19.2782C7.43997 19.0179 7.07888 18.8247 6.61701 18.9759L4.92071 19.4797C4.49243 19.6141 4.10615 19.2782 4.23211 18.8247L4.79475 16.9437C4.88712 16.6834 4.87032 16.4062 4.73596 16.1879C4.01377 14.8611 3.60229 13.4083 3.60229 11.9975ZM10.9087 11.9977C10.9087 12.594 11.3874 13.0726 11.9836 13.081C12.5798 13.081 13.0585 12.594 13.0585 12.0061C13.0585 11.4099 12.5798 10.9313 11.9836 10.9313C11.3957 10.9229 10.9087 11.4099 10.9087 11.9977ZM7.03711 12.0062C7.03711 12.594 7.52417 13.0811 8.112 13.0811C8.70822 13.0727 9.18688 12.594 9.18688 12.0062C9.18688 11.41 8.70822 10.9313 8.112 10.9313C7.51577 10.9313 7.03711 11.41 7.03711 12.0062ZM15.8547 13.0811C15.2585 13.0811 14.7798 12.594 14.7798 12.0062C14.7798 11.41 15.2585 10.9313 15.8547 10.9313C16.4509 10.9313 16.9296 11.41 16.9296 12.0062C16.9296 12.594 16.4509 13.0811 15.8547 13.0811Z" fill="currentColor"></path>
</symbol><symbol viewBox="0 0 24 24" id="votigram-icon-navbar-for-you">
<rect x="4" y="4" width="8" height="8" rx="2.5" fill="currentColor"></rect>
<rect x="4" y="13" width="8" height="8" rx="2.5" fill="currentColor"></rect>
<rect x="13" y="4" width="8" height="8" rx="2.5" fill="currentColor"></rect>
<rect x="13" y="13" width="8" height="8" rx="2.5" fill="currentColor"></rect>
</symbol><symbol viewBox="0 0 24 24" id="votigram-icon-navbar-home">
<path d="M2.5 10.9384C2.5 9.71422 3.06058 8.55744 4.02142 7.79888L9.52142 3.45677C10.9747 2.30948 13.0253 2.30948 14.4786 3.45677L19.9786 7.79888C20.9394 8.55744 21.5 9.71422 21.5 10.9384V17.5C21.5 19.7091 19.7091 21.5 17.5 21.5H16C15.4477 21.5 15 21.0523 15 20.5V17.5C15 16.3954 14.1046 15.5 13 15.5H11C9.89543 15.5 9 16.3954 9 17.5V20.5C9 21.0523 8.55228 21.5 8 21.5H6.5C4.29086 21.5 2.5 19.7091 2.5 17.5L2.5 10.9384Z" fill="currentColor"></path>
</symbol><symbol viewBox="0 0 24 24" id="votigram-icon-navbar-task-profile">
<path fill-rule="evenodd" clip-rule="evenodd" d="M14.0442 4.33593C14.8247 3.55429 16.0905 3.55381 16.8716 4.33486L19.3634 6.82672C20.1378 7.6011 20.1458 8.85475 19.3815 9.63902L17.7215 11.3421L12.381 6.00162L14.0442 4.33593ZM11.3212 7.06308L16.6745 12.4164L10.1483 19.1123C9.58389 19.6914 8.80977 20.0179 8.00142 20.0179L5.24927 20.0178C4.39644 20.0177 3.71536 19.3068 3.75123 18.4541L3.86939 15.6451C3.90098 14.8938 4.21321 14.1818 4.74428 13.65L11.3212 7.06308ZM20.5148 20.6951C20.9289 20.6951 21.2645 20.3592 21.2645 19.9448C21.2645 19.5304 20.9289 19.1945 20.5148 19.1945H14.3931C13.979 19.1945 13.6434 19.5304 13.6434 19.9448C13.6434 20.3592 13.979 20.6951 14.3931 20.6951H20.5148Z" fill="currentColor"></path>
</symbol><symbol viewBox="0 0 24 24" id="votigram-icon-navbar-vote">
<path fill-rule="evenodd" clip-rule="evenodd" d="M4.562 5.66015C6.59801 3.51442 9.87373 3.44869 11.9857 5.46296V20C11.1578 20 10.3299 19.6743 9.71186 19.023L4.562 13.5956C2.47933 11.4007 2.47933 7.85505 4.562 5.66015ZM19.4094 5.66015C17.3734 3.51442 14.0977 3.44869 11.9857 5.46296V20C12.8136 20 13.6415 19.6743 14.2595 19.023L19.4094 13.5956C21.492 11.4007 21.4921 7.85505 19.4094 5.66015Z" fill="currentColor"></path>
</symbol><symbol viewBox="0 0 24 24" id="votigram-icon-profile">
<path d="M11.9966 15.0665C8.37378 15.0665 5.2793 15.6377 5.2793 17.9225C5.2793 20.208 8.35446 20.7994 11.9966 20.7994C15.6194 20.7994 18.7139 20.229 18.7139 17.9435C18.7139 15.6579 15.6396 15.0665 11.9966 15.0665" fill="currentColor"></path>
<path d="M11.9963 12.8903C14.4642 12.8903 16.4415 10.9122 16.4415 8.44517C16.4415 5.97815 14.4642 4 11.9963 4C9.5293 4 7.55115 5.97815 7.55115 8.44517C7.55115 10.9122 9.5293 12.8903 11.9963 12.8903" fill="currentColor"></path>
</symbol></svg>