<svg xmlns="http://www.w3.org/2000/svg" xmlns:xlink="http://www.w3.org/1999/xlink" width="0" height="0" style="display:none;"><symbol viewBox="0 0 24 24" id="votigram-icon-arrow-go"><path d="M7.150 3.150 L 6.000 4.300 9.740 8.040 L 13.480 11.780 9.740 15.520 L 6.000 19.260 7.140 20.400 L 8.280 21.540 13.170 16.650 L 18.060 11.760 13.180 6.880 L 8.300 2.000 7.150 3.150 " fill="currentColor" stroke="none" fill-rule="evenodd"></path></symbol><symbol viewBox="0 0 24 24" id="votigram-icon-arrow-ninety-degrees"><path d="M5.700 4.798 C 5.317 4.891,4.940 5.245,4.821 5.622 C 4.677 6.079,4.799 6.553,5.149 6.899 C 5.484 7.229,5.549 7.240,7.175 7.240 C 7.951 7.240,9.941 7.252,11.597 7.267 L 14.607 7.293 9.607 12.297 C 6.106 15.800,4.579 17.354,4.514 17.480 C 4.436 17.630,4.421 17.721,4.421 18.020 C 4.421 18.332,4.435 18.407,4.527 18.583 C 4.749 19.005,5.152 19.253,5.620 19.257 C 6.190 19.263,5.736 19.674,11.349 14.066 L 16.399 9.022 16.409 13.481 L 16.420 17.940 16.525 18.163 C 16.905 18.974,17.942 19.155,18.541 18.514 C 18.643 18.406,18.765 18.232,18.813 18.129 L 18.900 17.940 18.911 11.350 L 18.921 4.760 12.371 4.764 C 8.768 4.766,5.766 4.781,5.700 4.798 " fill="currentColor" stroke="none" fill-rule="evenodd"></path></symbol><symbol viewBox="0 0 24 24" id="votigram-icon-back"><path d="M6.830 8.150 L 3.000 11.980 6.860 15.840 L 10.720 19.699 11.420 19.000 L 12.120 18.301 9.470 15.650 L 6.820 13.000 14.110 13.000 L 21.400 13.000 21.400 12.000 L 21.400 11.000 14.110 11.000 L 6.820 11.000 9.470 8.350 L 12.120 5.699 11.430 5.010 C 11.050 4.630,10.721 4.320,10.700 4.320 C 10.678 4.320,8.936 6.044,6.830 8.150 " fill="currentColor" stroke="none" fill-rule="evenodd"></path></symbol><symbol viewBox="0 0 24 24" id="votigram-icon-cancel"><path d="M4.049 3.044 C 3.955 3.067,3.767 3.161,3.633 3.253 C 3.195 3.552,2.972 4.004,3.009 4.517 C 3.051 5.084,2.860 4.867,6.596 8.610 L 9.978 12.000 6.596 15.390 C 2.769 19.224,3.022 18.928,3.021 19.580 C 3.020 19.887,3.036 19.973,3.127 20.168 C 3.263 20.459,3.541 20.737,3.832 20.873 C 4.027 20.964,4.113 20.980,4.420 20.979 C 5.072 20.978,4.776 21.231,8.610 17.404 L 12.000 14.022 15.390 17.404 C 19.224 21.231,18.928 20.978,19.580 20.979 C 19.884 20.980,19.974 20.964,20.160 20.877 C 20.441 20.745,20.723 20.463,20.867 20.170 C 20.966 19.969,20.980 19.895,20.979 19.580 C 20.978 18.928,21.231 19.224,17.404 15.390 L 14.022 12.000 17.404 8.610 C 21.231 4.776,20.978 5.072,20.979 4.420 C 20.980 4.112,20.964 4.027,20.873 3.831 C 20.740 3.549,20.470 3.280,20.169 3.132 C 19.970 3.034,19.894 3.020,19.580 3.020 C 18.932 3.020,19.200 2.792,15.370 6.615 L 12.000 9.979 8.630 6.615 C 4.885 2.876,5.083 3.049,4.514 3.019 C 4.352 3.010,4.143 3.022,4.049 3.044 " fill="currentColor" stroke="none" fill-rule="evenodd"></path></symbol><symbol viewBox="0 0 24 24" id="votigram-icon-chat-bubble"><path d="M11.180 3.644 C 9.796 3.795,8.462 4.277,7.340 5.030 C 4.540 6.912,3.123 10.275,3.765 13.520 C 3.883 14.119,4.183 14.997,4.521 15.740 C 4.897 16.564,4.897 16.559,4.563 17.707 C 4.267 18.726,4.193 19.058,4.239 19.174 C 4.257 19.221,4.327 19.312,4.394 19.375 C 4.556 19.529,4.717 19.523,5.380 19.337 C 5.666 19.257,6.089 19.138,6.320 19.073 C 6.558 19.006,6.844 18.954,6.980 18.952 C 7.207 18.949,7.267 18.973,8.070 19.370 C 8.537 19.601,9.119 19.857,9.364 19.938 C 10.927 20.457,12.714 20.494,14.294 20.039 C 15.693 19.636,16.852 18.967,17.894 17.961 C 19.188 16.711,19.944 15.267,20.289 13.380 C 20.405 12.747,20.414 11.363,20.306 10.740 C 19.978 8.835,19.153 7.251,17.815 5.960 C 16.520 4.710,15.029 3.977,13.216 3.699 C 12.712 3.622,11.647 3.593,11.180 3.644 M8.605 11.072 C 9.264 11.416,9.360 12.332,8.788 12.821 C 8.616 12.968,8.317 13.080,8.094 13.080 C 7.862 13.080,7.540 12.931,7.367 12.743 C 7.124 12.479,7.080 12.367,7.081 12.012 C 7.082 11.625,7.160 11.437,7.413 11.215 C 7.635 11.019,7.776 10.969,8.125 10.964 C 8.343 10.961,8.429 10.980,8.605 11.072 M12.550 11.114 C 13.018 11.414,13.167 11.995,12.906 12.507 C 12.791 12.734,12.683 12.839,12.447 12.958 C 12.046 13.159,11.566 13.088,11.259 12.781 C 11.056 12.578,10.970 12.395,10.934 12.095 C 10.899 11.793,10.976 11.555,11.186 11.322 C 11.451 11.027,11.630 10.952,12.025 10.970 C 12.309 10.983,12.375 11.001,12.550 11.114 M16.344 11.080 C 16.622 11.222,16.778 11.411,16.866 11.713 C 17.060 12.383,16.549 13.080,15.862 13.080 C 15.158 13.080,14.650 12.374,14.854 11.677 C 15.036 11.053,15.738 10.772,16.344 11.080 " fill="currentColor" stroke="none" fill-rule="evenodd"></path></symbol><symbol viewBox="0 0 24 24" id="votigram-icon-navbar-for-you"><path d="M5.960 4.062 C 5.301 4.203,4.615 4.720,4.308 5.308 C 4.012 5.874,4.000 5.983,4.000 8.000 C 4.000 9.648,4.006 9.811,4.079 10.096 C 4.262 10.811,4.732 11.404,5.362 11.715 C 5.913 11.987,6.025 11.999,8.000 11.999 C 9.975 11.999,10.087 11.987,10.638 11.715 C 11.103 11.485,11.485 11.103,11.715 10.638 C 11.987 10.087,11.999 9.975,11.999 8.000 C 11.999 6.025,11.987 5.913,11.714 5.361 C 11.399 4.722,10.729 4.207,10.020 4.060 C 9.626 3.978,6.346 3.979,5.960 4.062 M14.960 4.062 C 14.301 4.203,13.615 4.720,13.308 5.308 C 13.012 5.874,13.000 5.983,13.000 8.000 C 13.000 9.648,13.006 9.811,13.079 10.096 C 13.262 10.811,13.732 11.404,14.362 11.715 C 14.913 11.987,15.025 11.999,17.000 11.999 C 18.975 11.999,19.087 11.987,19.638 11.715 C 20.103 11.485,20.485 11.103,20.715 10.638 C 20.987 10.087,20.999 9.975,20.999 8.000 C 20.999 6.025,20.987 5.913,20.714 5.361 C 20.399 4.722,19.729 4.207,19.020 4.060 C 18.626 3.978,15.346 3.979,14.960 4.062 M5.960 13.062 C 5.301 13.203,4.615 13.720,4.308 14.308 C 4.012 14.874,4.000 14.983,4.000 17.000 C 4.000 18.648,4.006 18.811,4.079 19.096 C 4.262 19.811,4.732 20.404,5.362 20.715 C 5.913 20.987,6.025 20.999,8.000 20.999 C 9.975 20.999,10.087 20.987,10.638 20.715 C 11.103 20.485,11.485 20.103,11.715 19.638 C 11.987 19.087,11.999 18.975,11.999 17.000 C 11.999 15.025,11.987 14.913,11.714 14.361 C 11.399 13.722,10.729 13.207,10.020 13.060 C 9.626 12.978,6.346 12.979,5.960 13.062 M14.960 13.062 C 14.301 13.203,13.615 13.720,13.308 14.308 C 13.012 14.874,13.000 14.983,13.000 17.000 C 13.000 18.648,13.006 18.811,13.079 19.096 C 13.262 19.811,13.732 20.404,14.362 20.715 C 14.913 20.987,15.025 20.999,17.000 20.999 C 18.975 20.999,19.087 20.987,19.638 20.715 C 20.103 20.485,20.485 20.103,20.715 19.638 C 20.987 19.087,20.999 18.975,20.999 17.000 C 20.999 15.025,20.987 14.913,20.714 14.361 C 20.399 13.722,19.729 13.207,19.020 13.060 C 18.626 12.978,15.346 12.979,14.960 13.062 " stroke="none" fill="black" fill-rule="evenodd"></path></symbol><symbol viewBox="0 0 24 24" id="votigram-icon-navbar-home"><path d="M11.520 2.624 C 10.803 2.756,10.322 2.932,9.863 3.228 C 9.420 3.514,3.973 7.824,3.657 8.139 C 3.018 8.774,2.627 9.600,2.521 10.540 C 2.467 11.021,2.467 17.419,2.521 17.900 C 2.629 18.851,3.014 19.658,3.678 20.322 C 4.033 20.677,4.368 20.913,4.815 21.122 C 5.501 21.444,6.114 21.536,7.400 21.512 C 8.074 21.500,8.248 21.485,8.380 21.427 C 8.601 21.329,8.792 21.137,8.905 20.900 L 8.999 20.700 9.000 19.000 C 9.001 17.626,9.013 17.251,9.062 17.044 C 9.224 16.356,9.765 15.781,10.437 15.584 C 10.618 15.531,10.886 15.520,12.017 15.521 C 13.336 15.522,13.388 15.525,13.640 15.614 C 14.132 15.788,14.520 16.115,14.754 16.555 C 14.985 16.988,14.999 17.125,15.000 19.000 L 15.001 20.700 15.095 20.900 C 15.208 21.137,15.399 21.329,15.620 21.427 C 15.752 21.485,15.926 21.500,16.600 21.512 C 17.886 21.536,18.499 21.444,19.185 21.122 C 19.632 20.913,19.967 20.677,20.322 20.322 C 20.986 19.658,21.371 18.851,21.479 17.900 C 21.532 17.430,21.533 11.020,21.480 10.558 C 21.370 9.595,20.992 8.791,20.343 8.141 C 20.032 7.828,14.589 3.520,14.140 3.230 C 13.526 2.834,12.894 2.644,12.120 2.620 C 11.845 2.612,11.575 2.614,11.520 2.624 " fill="currentColor" stroke="none" fill-rule="evenodd"></path></symbol><symbol viewBox="0 0 24 24" id="votigram-icon-navbar-task-profile"><path d="M14.948 3.818 C 14.478 3.953,14.339 4.059,13.340 5.048 L 12.380 5.998 15.040 8.659 C 16.503 10.123,17.712 11.320,17.726 11.320 C 17.741 11.320,18.169 10.888,18.678 10.359 C 19.478 9.529,19.622 9.360,19.739 9.117 C 20.009 8.552,20.014 7.963,19.751 7.381 C 19.633 7.118,19.532 7.007,18.202 5.668 C 17.420 4.880,16.684 4.172,16.567 4.094 C 16.450 4.016,16.252 3.915,16.127 3.871 C 15.836 3.767,15.221 3.739,14.948 3.818 M7.936 10.450 C 6.087 12.303,4.507 13.912,4.427 14.025 C 4.226 14.307,4.057 14.680,3.960 15.058 C 3.895 15.316,3.867 15.650,3.816 16.798 C 3.739 18.541,3.747 18.820,3.889 19.129 C 4.026 19.427,4.303 19.719,4.574 19.852 C 4.933 20.027,5.229 20.050,6.897 20.030 C 8.283 20.013,8.448 20.004,8.728 19.928 C 9.135 19.817,9.572 19.601,9.856 19.369 C 9.983 19.265,11.569 17.659,13.381 15.800 L 16.675 12.420 14.008 9.750 C 12.541 8.281,11.331 7.080,11.319 7.080 C 11.308 7.080,9.785 8.597,7.936 10.450 M14.100 19.256 C 13.916 19.336,13.734 19.547,13.679 19.743 C 13.583 20.086,13.716 20.404,14.033 20.590 L 14.220 20.700 17.420 20.700 C 19.951 20.700,20.651 20.689,20.767 20.648 C 20.956 20.581,21.184 20.329,21.238 20.128 C 21.306 19.876,21.224 19.590,21.033 19.412 C 20.800 19.194,20.905 19.200,17.431 19.202 C 14.869 19.203,14.196 19.214,14.100 19.256 " fill="currentColor" stroke="none" fill-rule="evenodd"></path></symbol><symbol viewBox="0 0 24 24" id="votigram-icon-navbar-vote"><path d="M7.731 4.041 C 5.812 4.283,4.151 5.608,3.401 7.497 C 2.903 8.750,2.874 10.264,3.324 11.548 C 3.496 12.039,3.840 12.687,4.139 13.084 C 4.450 13.497,9.758 19.094,10.072 19.341 C 10.816 19.925,11.866 20.141,12.780 19.899 C 13.159 19.799,13.712 19.505,14.003 19.251 C 14.248 19.035,19.136 13.906,19.597 13.380 C 20.190 12.703,20.617 11.839,20.842 10.860 C 20.973 10.292,20.993 9.278,20.886 8.660 C 20.686 7.498,20.190 6.496,19.409 5.675 C 18.635 4.862,17.632 4.303,16.571 4.094 C 16.137 4.008,15.150 3.998,14.720 4.075 C 13.837 4.233,12.955 4.648,12.243 5.240 C 12.111 5.350,11.988 5.440,11.969 5.440 C 11.950 5.440,11.890 5.393,11.837 5.337 C 11.559 5.040,10.800 4.575,10.220 4.347 C 9.530 4.075,8.483 3.946,7.731 4.041 " fill="currentColor" stroke="none" fill-rule="evenodd"></path></symbol><symbol viewBox="0 0 24 24" id="votigram-icon-profile"><path d="M11.380 4.046 C 10.921 4.104,10.528 4.229,10.020 4.478 C 8.830 5.061,8.046 6.034,7.669 7.399 C 7.598 7.654,7.585 7.814,7.585 8.440 C 7.585 9.122,7.594 9.212,7.694 9.580 C 8.117 11.133,9.333 12.344,10.872 12.747 C 11.350 12.872,12.146 12.915,12.647 12.842 C 14.763 12.533,16.340 10.772,16.428 8.620 C 16.502 6.804,15.527 5.203,13.869 4.420 C 13.117 4.064,12.255 3.935,11.380 4.046 M10.220 15.121 C 9.527 15.171,8.770 15.271,8.224 15.386 C 6.293 15.791,5.278 16.664,5.281 17.918 C 5.283 18.794,5.741 19.473,6.646 19.941 C 7.766 20.520,9.512 20.800,12.000 20.800 C 16.207 20.800,18.399 19.985,18.681 18.315 C 18.796 17.632,18.593 16.966,18.123 16.483 C 17.459 15.801,16.291 15.393,14.380 15.176 C 13.727 15.102,10.993 15.066,10.220 15.121 " fill="currentColor" stroke="none" fill-rule="evenodd"></path></symbol><symbol viewBox="0 0 24 24" id="votigram-icon-reset"><path d="M10.880 4.027 C 8.350 4.283,6.022 5.695,4.630 7.820 C 4.342 8.259,3.890 9.173,3.720 9.660 C 3.146 11.304,3.090 13.099,3.559 14.770 C 4.500 18.118,7.382 20.533,10.900 20.920 C 12.336 21.078,14.008 20.780,15.380 20.124 C 16.267 19.700,16.884 19.269,17.595 18.581 C 18.346 17.854,18.868 17.150,19.304 16.275 C 19.486 15.912,19.532 15.780,19.534 15.620 C 19.544 14.923,18.741 14.514,18.190 14.934 C 18.061 15.033,17.969 15.164,17.807 15.482 C 17.090 16.883,16.039 17.924,14.680 18.576 C 12.746 19.504,10.624 19.490,8.700 18.537 C 6.235 17.315,4.768 14.745,4.964 11.988 C 5.027 11.095,5.216 10.376,5.600 9.571 C 6.640 7.392,8.601 5.998,11.020 5.722 C 13.470 5.442,15.982 6.621,17.366 8.700 C 17.600 9.053,18.031 9.866,17.997 9.893 C 17.988 9.901,17.557 10.019,17.040 10.156 C 15.798 10.485,15.720 10.511,15.720 10.596 C 15.720 10.635,15.761 10.703,15.810 10.748 C 15.915 10.844,19.672 13.690,19.797 13.767 C 19.855 13.803,19.900 13.807,19.943 13.780 C 20.022 13.730,21.885 9.129,21.870 9.020 C 21.864 8.972,21.824 8.935,21.771 8.927 C 21.722 8.920,21.231 9.035,20.679 9.182 C 20.127 9.329,19.670 9.442,19.663 9.434 C 19.657 9.427,19.577 9.249,19.485 9.040 C 18.296 6.324,15.684 4.405,12.681 4.041 C 12.368 4.003,11.205 3.994,10.880 4.027 " fill="currentColor" stroke="none" fill-rule="evenodd"></path></symbol><symbol viewBox="0 0 24 24" id="votigram-icon-search"><path d="M10.040 3.045 C 7.037 3.345,4.422 5.409,3.446 8.246 C 2.752 10.265,2.875 12.377,3.797 14.260 C 4.216 15.116,4.700 15.778,5.406 16.461 C 6.747 17.759,8.375 18.487,10.292 18.645 C 11.960 18.782,13.783 18.288,15.237 17.304 L 15.693 16.995 17.257 18.551 C 18.928 20.213,18.913 20.201,19.305 20.199 C 19.481 20.198,19.774 20.077,19.915 19.948 C 20.060 19.815,20.199 19.486,20.199 19.280 C 20.198 18.916,20.132 18.835,18.516 17.217 L 16.995 15.694 17.304 15.237 C 18.236 13.859,18.752 12.058,18.662 10.500 C 18.511 7.906,17.212 5.648,15.060 4.241 C 13.644 3.316,11.778 2.871,10.040 3.045 M11.900 4.943 C 12.413 5.033,13.043 5.247,13.536 5.497 C 15.142 6.313,16.291 7.799,16.685 9.571 C 16.801 10.094,16.833 11.200,16.747 11.743 C 16.540 13.043,15.956 14.179,15.020 15.100 C 13.275 16.817,10.686 17.296,8.434 16.319 C 6.901 15.655,5.660 14.285,5.143 12.685 C 4.932 12.032,4.867 11.599,4.866 10.840 C 4.864 9.792,5.025 9.095,5.480 8.180 C 6.067 7.002,6.935 6.116,8.080 5.525 C 8.776 5.167,9.402 4.973,10.160 4.881 C 10.561 4.832,11.455 4.864,11.900 4.943 " fill="currentColor" stroke="none" fill-rule="evenodd"></path></symbol><symbol viewBox="0 0 24 24" id="votigram-icon-send"><path d="M11.600 4.104 C 11.300 4.184,10.986 4.380,10.772 4.620 C 10.629 4.781,9.945 6.117,7.302 11.401 C 4.851 16.299,3.997 18.043,3.960 18.221 C 3.789 19.043,4.247 19.893,5.030 20.206 C 5.223 20.283,5.327 20.297,5.680 20.293 C 6.096 20.288,6.127 20.280,8.740 19.554 L 11.380 18.820 11.400 16.818 C 11.422 14.594,11.406 14.722,11.700 14.497 C 11.966 14.294,12.407 14.369,12.607 14.649 L 12.700 14.780 12.720 16.798 L 12.740 18.816 15.460 19.568 C 18.169 20.317,18.181 20.320,18.540 20.309 C 18.846 20.299,18.940 20.278,19.170 20.170 C 19.545 19.995,19.846 19.699,20.031 19.325 C 20.176 19.032,20.180 19.013,20.180 18.573 L 20.180 18.121 16.848 11.456 C 13.896 5.551,13.493 4.767,13.318 4.582 C 12.883 4.122,12.221 3.938,11.600 4.104 " fill="currentColor" stroke="none" fill-rule="evenodd"></path></symbol><symbol viewBox="0 0 24 24" id="votigram-icon-sponsored"><path d="M12.320 3.704 C 12.015 3.786,11.619 3.976,11.381 4.157 C 11.270 4.240,10.415 4.971,9.480 5.780 C 8.301 6.800,7.713 7.283,7.560 7.355 C 7.342 7.459,7.329 7.460,6.120 7.485 C 4.747 7.512,4.666 7.526,4.060 7.819 C 3.225 8.224,2.615 8.967,2.351 9.900 C 2.263 10.214,2.261 10.260,2.261 12.380 L 2.260 14.540 2.371 14.892 C 2.563 15.506,2.838 15.958,3.265 16.362 C 3.695 16.769,4.130 17.010,4.716 17.168 C 4.977 17.238,5.189 17.254,6.220 17.275 C 7.400 17.300,7.423 17.302,7.608 17.400 C 7.711 17.455,8.598 18.193,9.578 19.040 C 10.558 19.887,11.472 20.648,11.609 20.731 C 11.746 20.814,12.003 20.930,12.179 20.989 C 12.458 21.081,12.565 21.095,13.000 21.095 C 13.440 21.095,13.538 21.081,13.820 20.985 C 14.710 20.680,15.331 20.059,15.635 19.167 L 15.740 18.860 15.740 12.400 C 15.740 6.271,15.736 5.927,15.667 5.680 C 15.393 4.702,14.650 3.963,13.696 3.719 C 13.322 3.623,12.650 3.616,12.320 3.704 M17.630 8.723 C 17.399 8.845,17.261 9.083,17.261 9.361 C 17.261 9.552,17.284 9.625,17.397 9.805 C 17.717 10.311,17.803 10.465,17.920 10.746 C 18.158 11.318,18.216 11.630,18.218 12.360 C 18.219 12.928,18.206 13.070,18.126 13.376 C 17.999 13.858,17.803 14.302,17.539 14.707 C 17.272 15.116,17.211 15.311,17.276 15.548 C 17.400 16.001,17.884 16.234,18.303 16.044 C 18.781 15.827,19.435 14.547,19.665 13.379 C 19.761 12.890,19.762 11.876,19.666 11.380 C 19.454 10.279,18.799 8.944,18.361 8.720 C 18.155 8.615,17.832 8.616,17.630 8.723 " fill="currentColor" stroke="none" fill-rule="evenodd"></path></symbol><symbol viewBox="0 0 24 24" id="votigram-icon-tick"><path d="M19.171 3.521 C 19.020 3.570,18.826 3.678,18.682 3.791 C 18.519 3.920,17.122 5.543,14.259 8.931 L 10.075 13.881 9.787 13.643 C 9.629 13.512,8.744 12.774,7.820 12.003 C 6.896 11.232,6.040 10.548,5.917 10.483 C 5.290 10.146,4.450 10.277,3.946 10.790 C 3.691 11.049,3.613 11.175,3.519 11.474 C 3.359 11.986,3.454 12.598,3.755 12.998 C 3.856 13.133,5.041 14.147,7.199 15.946 C 9.941 18.232,10.498 18.679,10.541 18.634 C 10.570 18.604,12.962 15.781,15.858 12.360 C 19.675 7.850,21.154 6.074,21.241 5.900 C 21.676 5.028,21.310 4.011,20.410 3.590 C 20.054 3.423,19.557 3.395,19.171 3.521 " fill="currentColor" stroke="none" fill-rule="evenodd"></path></symbol></svg>